<svg viewBox="0 10 365 450" xmlns="http://www.w3.org/2000/svg">
    <defs>
        <style>
            .cyan-stroke {
            fill: none;
            stroke: #00d9ff;
            stroke-width: 6;
            stroke-linecap: round;
            stroke-linejoin: round;
            }
        </style>
    </defs>

    <!-- Purple background -->
    <rect width="365" height="450" fill="#553570"/>

    <!-- Outer arc open on right side -->
    <path d="M 240,50 A 132,132 0 1,0 240,270" class="cyan-stroke"/>

    <!-- Gear shape -->
    <path d="
        M 210,90
        Q 210,90 190,80
        L 190,60
        Q 190,50 180,50
        L 160,50
        Q 150,50 150,60
        L 150,80
        Q 140,85 132,92
        L 115,75
        Q 108,68 100,75
        L 85,90
        Q 78,97 85,105
        L 102,122
        Q 95,130 90,140
        L 70,140
        Q 60,140 60,150
        L 60,170
        Q 60,180 70,180
        L 90,180
        Q 95,190 102,198
        L 85,215
        Q 78,223 85,230
        L 100,245
        Q 108,252 115,245
        L 132,228
        Q 140,235 150,240
        L 150,260
        Q 150,270 160,270
        L 180,270
        Q 190,270 190,260
        L 190,240
        Q 200,235 208,228
        L 225,245 black
        Q 232,252 240,245
        L 255,230
        Q 262,223 255,215
        L 238,198
        Q 245,190 250,180
        L 270,180
        Q 280,180 280,170
        L 280,150
        Q 280,140 270,140
        L 250,140
        Q 245,130 238,122
        L 255,105
        Q 262,97 255,90
        L 240,75
        Q 232,68 225,75
        Z" class="cyan-stroke"
    />

    <!-- Center arc open on right side-->
     <path d="M 217,130 A 55,55 0 1,0 220,185" class="cyan-stroke"/>

    <!-- Circuit traces with dots -->
    <line x1="240" y1="50" x2="275" y2="50" class="cyan-stroke"/>
    <circle cx="275" cy="50" r="6" fill="#00d9ff"/>

    <line x1="210" y1="90" x2="325" y2="90" class="cyan-stroke"/>
    <circle cx="325" cy="90" r="6" fill="#00d9ff"/>

    <line x1="217" y1="130" x2="260" y2="130" class="cyan-stroke"/>
    <circle cx="260" cy="130" r="6" fill="#00d9ff"/>

    <line x1="220" y1="185" x2="315" y2="185" class="cyan-stroke"/>
    <circle cx="315" cy="185" r="6" fill="#00d9ff"/>

    <line x1="225" y1="245" x2="295" y2="245" class="cyan-stroke"/>
    <circle cx="295" cy="245" r="6" fill="#00d9ff"/>

    <line x1="240" y1="270" x2="275" y2="270" class="cyan-stroke"/>
    <circle cx="275" cy="270" r="6" fill="#00d9ff"/>

    <!-- MTCE text -->
    <text x="182" y="400" font-family="Arial, sans-serif" font-size="125" font-weight="bold"
          fill="#ffffff" text-anchor="middle">MTCE</text>

    <!-- Subtitle text -->
    <text x="187.5" y="430" font-family="Arial, sans-serif" font-size="18" font-weight="bold"
          fill="#00d9ff" text-anchor="middle" letter-spacing="8">AN AUTOMATION TOOL</text>
</svg>